<svg width="42" height="41" viewBox="0 0 42 41" fill="none" xmlns="http://www.w3.org/2000/svg">
<path d="M20.6712 10.6123C14.8846 10.6123 10.217 15.1988 10.217 20.8849C10.217 26.571 14.8846 31.1575 20.6712 31.1575C26.4579 31.1575 31.1255 26.571 31.1255 20.8849C31.1255 15.1988 26.4579 10.6123 20.6712 10.6123ZM20.6712 27.5634C16.9317 27.5634 13.8746 24.5684 13.8746 20.8849C13.8746 17.2014 16.9226 14.2064 20.6712 14.2064C24.4199 14.2064 27.4679 17.2014 27.4679 20.8849C27.4679 24.5684 24.4108 27.5634 20.6712 27.5634ZM33.9915 10.1921C33.9915 11.5242 32.8997 12.5882 31.5531 12.5882C30.1974 12.5882 29.1147 11.5153 29.1147 10.1921C29.1147 8.86892 30.2065 7.79606 31.5531 7.79606C32.8997 7.79606 33.9915 8.86892 33.9915 10.1921ZM40.9156 12.6239C40.7609 9.41429 40.0148 6.57122 37.6219 4.22882C35.238 1.88642 32.3447 1.1533 29.0783 0.992375C25.7118 0.804625 15.6215 0.804625 12.2551 0.992375C8.99778 1.14436 6.10444 1.87748 3.71152 4.21988C1.3186 6.56228 0.581613 9.40535 0.417839 12.615C0.226769 15.9229 0.226769 25.8379 0.417839 29.1459C0.572514 32.3555 1.3186 35.1986 3.71152 37.541C6.10444 39.8834 8.98869 40.6165 12.2551 40.7774C15.6215 40.9652 25.7118 40.9652 29.0783 40.7774C32.3447 40.6254 35.238 39.8923 37.6219 37.541C40.0057 35.1986 40.7518 32.3555 40.9156 29.1459C41.1066 25.8379 41.1066 15.9319 40.9156 12.6239ZM36.5664 32.6952C35.8567 34.4476 34.4829 35.7976 32.6904 36.5039C30.0064 37.5499 23.6374 37.3085 20.6712 37.3085C17.7051 37.3085 11.327 37.541 8.65204 36.5039C6.86872 35.8065 5.49484 34.4565 4.77605 32.6952C3.71152 30.0578 3.95718 23.7995 3.95718 20.8849C3.95718 17.9703 3.72062 11.703 4.77605 9.07455C5.48574 7.32222 6.85962 5.97221 8.65204 5.26591C11.3361 4.21988 17.7051 4.46127 20.6712 4.46127C23.6374 4.46127 30.0155 4.22882 32.6904 5.26591C34.4738 5.96327 35.8476 7.31328 36.5664 9.07455C37.631 11.712 37.3853 17.9703 37.3853 20.8849C37.3853 23.7995 37.631 30.0667 36.5664 32.6952Z" fill="#B91F33"/>
</svg>
