<svg width="41" height="41" viewBox="0 0 41 41" fill="none" xmlns="http://www.w3.org/2000/svg">
<path d="M34.6758 6.67375C30.8613 2.9175 25.7815 0.851562 20.3831 0.851562C9.2402 0.851562 0.172969 9.75924 0.172969 20.706C0.172969 24.2029 1.10154 27.6193 2.86765 30.6333L0 40.9182L10.715 38.1547C13.6646 39.7377 16.9874 40.5694 20.374 40.5694H20.3831C31.5168 40.5694 40.7843 31.6618 40.7843 20.715C40.7843 15.4115 38.4902 10.43 34.6758 6.67375ZM20.3831 37.2246C17.3606 37.2246 14.402 36.4286 11.8256 34.9261L11.2157 34.5684L4.86134 36.205L6.55462 30.1145L6.15406 29.4885C4.46989 26.8591 3.58683 23.8273 3.58683 20.706C3.58683 11.6105 11.1247 4.20536 20.3922 4.20536C24.8803 4.20536 29.0952 5.9225 32.2633 9.04376C35.4314 12.165 37.3796 16.3058 37.3704 20.715C37.3704 29.8194 29.6415 37.2246 20.3831 37.2246ZM29.5959 24.8647C29.0952 24.6143 26.6099 23.4159 26.1457 23.2549C25.6814 23.085 25.3445 23.0045 25.0077 23.5053C24.6709 24.0062 23.7059 25.1151 23.4055 25.455C23.1141 25.7859 22.8137 25.8306 22.313 25.5802C19.3452 24.1224 17.3971 22.9777 15.4398 19.6775C14.9209 18.8011 15.9587 18.8637 16.9237 16.9677C17.0875 16.6368 17.0056 16.3506 16.8782 16.1001C16.7507 15.8497 15.7402 13.4082 15.3214 12.4154C14.9118 11.4496 14.493 11.5837 14.1835 11.5658C13.8922 11.5479 13.5553 11.5479 13.2185 11.5479C12.8817 11.5479 12.3354 11.6731 11.8711 12.165C11.4069 12.6659 10.105 13.8643 10.105 16.3058C10.105 18.7474 11.9167 21.1085 12.1625 21.4394C12.4174 21.7703 15.722 26.7786 20.7927 28.934C23.9972 30.2934 25.2535 30.4097 26.8557 30.1771C27.8298 30.034 29.8417 28.9787 30.2605 27.8161C30.6793 26.6534 30.6793 25.6607 30.5518 25.455C30.4335 25.2314 30.0966 25.1062 29.5959 24.8647Z" fill="#B91F33"/>
</svg>
